<mxfile host="app.diagrams.net" agent="Mozilla/5.0 (Windows NT 10.0; Win64; x64) AppleWebKit/537.36 (KHTML, like Gecko) Chrome/133.0.0.0 Safari/537.36" version="26.0.16">
  <diagram id="R2lEEEUBdFMjLlhIrx00" name="Page-1">
    <mxGraphModel dx="2950" dy="2306" grid="1" gridSize="10" guides="1" tooltips="1" connect="1" arrows="1" fold="1" page="1" pageScale="1" pageWidth="850" pageHeight="1100" math="0" shadow="0" extFonts="Permanent Marker^https://fonts.googleapis.com/css?family=Permanent+Marker">
      <root>
        <mxCell id="0" />
        <mxCell id="1" parent="0" />
        <mxCell id="kBqd_8Ci3ENqyGrLn9Mj-25" value="" style="endArrow=none;html=1;rounded=0;entryX=0.813;entryY=1;entryDx=0;entryDy=0;entryPerimeter=0;strokeWidth=4;fontSize=21;" parent="1" source="kBqd_8Ci3ENqyGrLn9Mj-23" target="kBqd_8Ci3ENqyGrLn9Mj-1" edge="1">
          <mxGeometry width="50" height="50" relative="1" as="geometry">
            <mxPoint x="2.5" y="-347" as="sourcePoint" />
            <mxPoint x="62.5" y="-373" as="targetPoint" />
          </mxGeometry>
        </mxCell>
        <mxCell id="kBqd_8Ci3ENqyGrLn9Mj-4" value="" style="endArrow=none;html=1;rounded=0;exitX=0;exitY=0;exitDx=0;exitDy=0;entryX=0.691;entryY=1.031;entryDx=0;entryDy=0;entryPerimeter=0;strokeWidth=4;fontSize=21;" parent="1" source="kBqd_8Ci3ENqyGrLn9Mj-1" target="kBqd_8Ci3ENqyGrLn9Mj-5" edge="1">
          <mxGeometry width="50" height="50" relative="1" as="geometry">
            <mxPoint x="-157.5" y="-409" as="sourcePoint" />
            <mxPoint x="-127.5" y="-459" as="targetPoint" />
          </mxGeometry>
        </mxCell>
        <mxCell id="kBqd_8Ci3ENqyGrLn9Mj-1" value="" style="rounded=0;whiteSpace=wrap;html=1;container=0;strokeWidth=4;fontSize=21;" parent="1" vertex="1">
          <mxGeometry x="-127.5" y="-520" width="160" height="51" as="geometry" />
        </mxCell>
        <mxCell id="kBqd_8Ci3ENqyGrLn9Mj-2" value="POLICE" style="text;html=1;align=center;verticalAlign=middle;whiteSpace=wrap;rounded=0;container=0;strokeWidth=4;fontSize=21;" parent="1" vertex="1">
          <mxGeometry x="-82.5" y="-506" width="60" height="30" as="geometry" />
        </mxCell>
        <mxCell id="kBqd_8Ci3ENqyGrLn9Mj-13" value="" style="endArrow=none;html=1;rounded=0;exitX=0.5;exitY=1;exitDx=0;exitDy=0;entryX=0.5;entryY=0;entryDx=0;entryDy=0;strokeWidth=4;fontSize=21;" parent="1" source="kBqd_8Ci3ENqyGrLn9Mj-12" target="kBqd_8Ci3ENqyGrLn9Mj-1" edge="1">
          <mxGeometry width="50" height="50" relative="1" as="geometry">
            <mxPoint x="-30" y="-540" as="sourcePoint" />
            <mxPoint x="-38" y="-510" as="targetPoint" />
          </mxGeometry>
        </mxCell>
        <mxCell id="MVpMIPIj1c72HwX78RUm-18" value="" style="rhombus;whiteSpace=wrap;html=1;rounded=0;strokeWidth=4;fontSize=21;" parent="1" vertex="1">
          <mxGeometry x="152.5" y="-534.5" width="80" height="80" as="geometry" />
        </mxCell>
        <mxCell id="MVpMIPIj1c72HwX78RUm-20" value="" style="endArrow=none;html=1;rounded=0;entryX=1;entryY=0.5;entryDx=0;entryDy=0;exitX=0;exitY=0.5;exitDx=0;exitDy=0;strokeWidth=4;fontSize=21;" parent="1" source="MVpMIPIj1c72HwX78RUm-18" target="kBqd_8Ci3ENqyGrLn9Mj-1" edge="1">
          <mxGeometry width="50" height="50" relative="1" as="geometry">
            <mxPoint x="360" y="-400" as="sourcePoint" />
            <mxPoint x="410" y="-450" as="targetPoint" />
          </mxGeometry>
        </mxCell>
        <mxCell id="MVpMIPIj1c72HwX78RUm-21" value="" style="endArrow=none;html=1;rounded=0;exitX=1;exitY=0.5;exitDx=0;exitDy=0;strokeWidth=4;fontSize=21;" parent="1" source="MVpMIPIj1c72HwX78RUm-18" edge="1">
          <mxGeometry width="50" height="50" relative="1" as="geometry">
            <mxPoint x="360" y="-400" as="sourcePoint" />
            <mxPoint x="900" y="-494" as="targetPoint" />
          </mxGeometry>
        </mxCell>
        <mxCell id="MVpMIPIj1c72HwX78RUm-27" value="view" style="text;html=1;align=center;verticalAlign=middle;whiteSpace=wrap;rounded=0;strokeWidth=4;fontSize=21;" parent="1" vertex="1">
          <mxGeometry x="162.5" y="-546" width="60" height="110" as="geometry" />
        </mxCell>
        <mxCell id="MVpMIPIj1c72HwX78RUm-28" value="" style="endArrow=none;html=1;rounded=0;strokeWidth=4;fontSize=21;" parent="1" edge="1">
          <mxGeometry width="50" height="50" relative="1" as="geometry">
            <mxPoint x="345" y="-330" as="sourcePoint" />
            <mxPoint x="345" y="-493" as="targetPoint" />
          </mxGeometry>
        </mxCell>
        <mxCell id="MVpMIPIj1c72HwX78RUm-32" value="" style="rounded=0;whiteSpace=wrap;html=1;strokeWidth=4;fontSize=21;" parent="1" vertex="1">
          <mxGeometry x="285" y="-330" width="120" height="60" as="geometry" />
        </mxCell>
        <mxCell id="MVpMIPIj1c72HwX78RUm-33" value="report" style="text;html=1;align=center;verticalAlign=middle;whiteSpace=wrap;rounded=0;strokeWidth=4;fontSize=21;" parent="1" vertex="1">
          <mxGeometry x="315" y="-315" width="60" height="30" as="geometry" />
        </mxCell>
        <mxCell id="MVpMIPIj1c72HwX78RUm-34" value="" style="endArrow=none;html=1;rounded=0;exitX=0.5;exitY=1;exitDx=0;exitDy=0;strokeWidth=4;fontSize=21;" parent="1" source="MVpMIPIj1c72HwX78RUm-32" edge="1">
          <mxGeometry width="50" height="50" relative="1" as="geometry">
            <mxPoint x="360" y="-260" as="sourcePoint" />
            <mxPoint x="345" y="-120" as="targetPoint" />
          </mxGeometry>
        </mxCell>
        <mxCell id="MVpMIPIj1c72HwX78RUm-35" value="" style="rhombus;whiteSpace=wrap;html=1;strokeWidth=4;fontSize=21;" parent="1" vertex="1">
          <mxGeometry x="285" y="-150" width="120" height="90" as="geometry" />
        </mxCell>
        <mxCell id="MVpMIPIj1c72HwX78RUm-36" value="manage" style="text;html=1;align=center;verticalAlign=middle;whiteSpace=wrap;rounded=0;strokeWidth=4;fontSize=21;" parent="1" vertex="1">
          <mxGeometry x="318" y="-120" width="60" height="30" as="geometry" />
        </mxCell>
        <mxCell id="MVpMIPIj1c72HwX78RUm-37" value="" style="endArrow=none;html=1;rounded=0;exitX=0.5;exitY=0;exitDx=0;exitDy=0;strokeWidth=4;fontSize=21;" parent="1" edge="1">
          <mxGeometry width="50" height="50" relative="1" as="geometry">
            <mxPoint x="345" y="66" as="sourcePoint" />
            <mxPoint x="345" y="-63" as="targetPoint" />
          </mxGeometry>
        </mxCell>
        <mxCell id="MVpMIPIj1c72HwX78RUm-46" value="" style="endArrow=none;html=1;rounded=0;exitX=0.842;exitY=0.007;exitDx=0;exitDy=0;exitPerimeter=0;strokeWidth=4;fontSize=21;" parent="1" source="MVpMIPIj1c72HwX78RUm-32" edge="1">
          <mxGeometry width="50" height="50" relative="1" as="geometry">
            <mxPoint x="506" y="-320" as="sourcePoint" />
            <mxPoint x="410" y="-380" as="targetPoint" />
          </mxGeometry>
        </mxCell>
        <mxCell id="kBqd_8Ci3ENqyGrLn9Mj-23" value="" style="ellipse;whiteSpace=wrap;html=1;container=0;shadow=0;strokeWidth=4;fontSize=21;" parent="1" vertex="1">
          <mxGeometry y="-627" width="95" height="60" as="geometry" />
        </mxCell>
        <mxCell id="kBqd_8Ci3ENqyGrLn9Mj-5" value="" style="ellipse;whiteSpace=wrap;html=1;container=0;shadow=0;strokeWidth=4;fontSize=21;" parent="1" vertex="1">
          <mxGeometry x="-242" y="-620" width="100" height="50" as="geometry" />
        </mxCell>
        <mxCell id="kBqd_8Ci3ENqyGrLn9Mj-62" value="" style="endArrow=none;html=1;strokeWidth=4;rounded=0;entryX=0.948;entryY=0.728;entryDx=0;entryDy=0;entryPerimeter=0;exitX=0.084;exitY=0.76;exitDx=0;exitDy=0;exitPerimeter=0;shadow=0;fontSize=21;dashed=1;" parent="1" source="kBqd_8Ci3ENqyGrLn9Mj-5" target="kBqd_8Ci3ENqyGrLn9Mj-5" edge="1">
          <mxGeometry width="50" height="50" relative="1" as="geometry">
            <mxPoint x="-207.5" y="-394" as="sourcePoint" />
            <mxPoint x="-147.5" y="-394" as="targetPoint" />
          </mxGeometry>
        </mxCell>
        <mxCell id="kBqd_8Ci3ENqyGrLn9Mj-12" value="" style="ellipse;whiteSpace=wrap;html=1;container=0;shadow=0;strokeWidth=4;fontSize=21;" parent="1" vertex="1">
          <mxGeometry x="-110" y="-630" width="95" height="60" as="geometry" />
        </mxCell>
        <mxCell id="kBqd_8Ci3ENqyGrLn9Mj-22" value="email" style="text;html=1;align=center;verticalAlign=middle;whiteSpace=wrap;rounded=0;container=0;shadow=0;strokeWidth=4;fontSize=21;" parent="1" vertex="1">
          <mxGeometry x="-92.5" y="-615" width="60" height="30" as="geometry" />
        </mxCell>
        <mxCell id="kBqd_8Ci3ENqyGrLn9Mj-61" value="id" style="text;html=1;align=center;verticalAlign=middle;whiteSpace=wrap;rounded=0;container=0;shadow=0;strokeWidth=4;fontSize=21;" parent="1" vertex="1">
          <mxGeometry x="-222" y="-610" width="60" height="30" as="geometry" />
        </mxCell>
        <mxCell id="MVpMIPIj1c72HwX78RUm-9" value="Text" style="text;html=1;align=center;verticalAlign=middle;whiteSpace=wrap;rounded=0;shadow=0;strokeWidth=4;fontSize=21;" parent="1" vertex="1">
          <mxGeometry x="17.5" y="-612" width="60" height="30" as="geometry" />
        </mxCell>
        <mxCell id="MVpMIPIj1c72HwX78RUm-47" value="" style="ellipse;whiteSpace=wrap;html=1;strokeWidth=4;fontSize=21;" parent="1" vertex="1">
          <mxGeometry x="360" y="-436" width="110" height="72" as="geometry" />
        </mxCell>
        <mxCell id="MVpMIPIj1c72HwX78RUm-48" value="" style="endArrow=none;html=1;rounded=0;entryX=0.25;entryY=0;entryDx=0;entryDy=0;exitX=0.365;exitY=-0.05;exitDx=0;exitDy=0;exitPerimeter=0;strokeWidth=4;fontSize=21;" parent="1" edge="1">
          <mxGeometry width="50" height="50" relative="1" as="geometry">
            <mxPoint x="328.8000000000002" y="-329" as="sourcePoint" />
            <mxPoint x="252.40338756778647" y="-428.4706714411616" as="targetPoint" />
          </mxGeometry>
        </mxCell>
        <mxCell id="MVpMIPIj1c72HwX78RUm-49" value="" style="ellipse;whiteSpace=wrap;html=1;strokeWidth=4;fontSize=21;" parent="1" vertex="1">
          <mxGeometry x="222.5" y="-436" width="107.5" height="68" as="geometry" />
        </mxCell>
        <mxCell id="MVpMIPIj1c72HwX78RUm-50" value="" style="endArrow=none;html=1;rounded=0;strokeWidth=4;fontSize=21;" parent="1" target="MVpMIPIj1c72HwX78RUm-32" edge="1">
          <mxGeometry width="50" height="50" relative="1" as="geometry">
            <mxPoint x="221" y="-330" as="sourcePoint" />
            <mxPoint x="281" y="-321" as="targetPoint" />
          </mxGeometry>
        </mxCell>
        <mxCell id="MVpMIPIj1c72HwX78RUm-52" value="" style="ellipse;whiteSpace=wrap;html=1;strokeWidth=4;fontSize=21;" parent="1" vertex="1">
          <mxGeometry x="122.5" y="-390" width="110" height="72" as="geometry" />
        </mxCell>
        <mxCell id="MVpMIPIj1c72HwX78RUm-53" value="" style="endArrow=none;html=1;rounded=0;strokeWidth=4;fontSize=21;" parent="1" edge="1">
          <mxGeometry width="50" height="50" relative="1" as="geometry">
            <mxPoint x="200" y="-270" as="sourcePoint" />
            <mxPoint x="283" y="-309" as="targetPoint" />
          </mxGeometry>
        </mxCell>
        <mxCell id="MVpMIPIj1c72HwX78RUm-54" value="" style="ellipse;whiteSpace=wrap;html=1;strokeWidth=4;fontSize=21;" parent="1" vertex="1">
          <mxGeometry x="112.5" y="-300" width="107.5" height="70" as="geometry" />
        </mxCell>
        <mxCell id="MVpMIPIj1c72HwX78RUm-55" value="" style="endArrow=none;html=1;rounded=0;strokeWidth=4;fontSize=21;" parent="1" edge="1">
          <mxGeometry width="50" height="50" relative="1" as="geometry">
            <mxPoint x="260" y="-220" as="sourcePoint" />
            <mxPoint x="286" y="-270" as="targetPoint" />
          </mxGeometry>
        </mxCell>
        <mxCell id="MVpMIPIj1c72HwX78RUm-56" value="" style="ellipse;whiteSpace=wrap;html=1;strokeWidth=4;fontSize=21;" parent="1" vertex="1">
          <mxGeometry x="180" y="-230" width="110" height="70" as="geometry" />
        </mxCell>
        <mxCell id="MVpMIPIj1c72HwX78RUm-57" value="" style="endArrow=none;html=1;rounded=0;entryX=0;entryY=0.5;entryDx=0;entryDy=0;strokeWidth=4;fontSize=21;" parent="1" target="MVpMIPIj1c72HwX78RUm-58" edge="1">
          <mxGeometry width="50" height="50" relative="1" as="geometry">
            <mxPoint x="404" y="-301" as="sourcePoint" />
            <mxPoint x="454" y="-301" as="targetPoint" />
          </mxGeometry>
        </mxCell>
        <mxCell id="MVpMIPIj1c72HwX78RUm-58" value="" style="ellipse;whiteSpace=wrap;html=1;strokeWidth=4;fontSize=21;" parent="1" vertex="1">
          <mxGeometry x="450" y="-364" width="110" height="80" as="geometry" />
        </mxCell>
        <mxCell id="MVpMIPIj1c72HwX78RUm-60" value="" style="ellipse;whiteSpace=wrap;html=1;strokeWidth=4;fontSize=21;" parent="1" vertex="1">
          <mxGeometry x="420" y="-260" width="110" height="80" as="geometry" />
        </mxCell>
        <mxCell id="MVpMIPIj1c72HwX78RUm-63" value="" style="endArrow=none;html=1;strokeWidth=4;rounded=0;entryX=0.972;entryY=0.776;entryDx=0;entryDy=0;entryPerimeter=0;fontSize=21;dashed=1;" parent="1" edge="1">
          <mxGeometry width="50" height="50" relative="1" as="geometry">
            <mxPoint x="134" y="-334" as="sourcePoint" />
            <mxPoint x="225.42000000000007" y="-334.12800000000016" as="targetPoint" />
          </mxGeometry>
        </mxCell>
        <mxCell id="MVpMIPIj1c72HwX78RUm-65" value="" style="endArrow=none;html=1;rounded=0;entryX=0.75;entryY=1;entryDx=0;entryDy=0;exitX=0;exitY=0;exitDx=0;exitDy=0;strokeWidth=4;fontSize=21;" parent="1" source="MVpMIPIj1c72HwX78RUm-60" target="MVpMIPIj1c72HwX78RUm-32" edge="1">
          <mxGeometry width="50" height="50" relative="1" as="geometry">
            <mxPoint x="220" y="-320" as="sourcePoint" />
            <mxPoint x="270" y="-370" as="targetPoint" />
          </mxGeometry>
        </mxCell>
        <mxCell id="MVpMIPIj1c72HwX78RUm-66" value="id" style="text;html=1;align=center;verticalAlign=middle;whiteSpace=wrap;rounded=0;strokeWidth=4;fontSize=21;" parent="1" vertex="1">
          <mxGeometry x="147.5" y="-369" width="60" height="30" as="geometry" />
        </mxCell>
        <mxCell id="MVpMIPIj1c72HwX78RUm-67" value="driver" style="text;html=1;align=center;verticalAlign=middle;whiteSpace=wrap;rounded=0;strokeWidth=4;fontSize=21;" parent="1" vertex="1">
          <mxGeometry x="246.25" y="-415" width="60" height="30" as="geometry" />
        </mxCell>
        <mxCell id="MVpMIPIj1c72HwX78RUm-69" value="driver_Ph" style="text;html=1;align=center;verticalAlign=middle;whiteSpace=wrap;rounded=0;strokeWidth=4;fontSize=21;" parent="1" vertex="1">
          <mxGeometry x="385" y="-410" width="60" height="30" as="geometry" />
        </mxCell>
        <mxCell id="MVpMIPIj1c72HwX78RUm-70" value="reason" style="text;html=1;align=center;verticalAlign=middle;whiteSpace=wrap;rounded=0;strokeWidth=4;fontSize=21;" parent="1" vertex="1">
          <mxGeometry x="136.25" y="-295" width="60" height="60" as="geometry" />
        </mxCell>
        <mxCell id="MVpMIPIj1c72HwX78RUm-71" value="user_ph" style="text;html=1;align=center;verticalAlign=middle;whiteSpace=wrap;rounded=0;strokeWidth=4;fontSize=21;" parent="1" vertex="1">
          <mxGeometry x="205" y="-210" width="60" height="30" as="geometry" />
        </mxCell>
        <mxCell id="MVpMIPIj1c72HwX78RUm-72" value="driver vehicle" style="text;html=1;align=center;verticalAlign=middle;whiteSpace=wrap;rounded=0;strokeWidth=4;fontSize=21;" parent="1" vertex="1">
          <mxGeometry x="475" y="-344" width="60" height="30" as="geometry" />
        </mxCell>
        <mxCell id="MVpMIPIj1c72HwX78RUm-74" value="username" style="text;html=1;align=center;verticalAlign=middle;whiteSpace=wrap;rounded=0;strokeWidth=4;fontSize=21;" parent="1" vertex="1">
          <mxGeometry x="440.5" y="-235" width="60" height="30" as="geometry" />
        </mxCell>
        <mxCell id="MVpMIPIj1c72HwX78RUm-22" value="" style="endArrow=none;html=1;rounded=0;strokeWidth=4;fontSize=21;" parent="1" edge="1">
          <mxGeometry width="50" height="50" relative="1" as="geometry">
            <mxPoint x="902" y="-95" as="sourcePoint" />
            <mxPoint x="900" y="-492" as="targetPoint" />
          </mxGeometry>
        </mxCell>
        <mxCell id="MVpMIPIj1c72HwX78RUm-24" value="Text" style="text;html=1;align=center;verticalAlign=middle;whiteSpace=wrap;rounded=0;container=0;strokeWidth=4;fontSize=21;" parent="1" vertex="1">
          <mxGeometry x="881" y="-74" width="60" height="30" as="geometry" />
        </mxCell>
        <mxCell id="MVpMIPIj1c72HwX78RUm-25" value="" style="endArrow=none;html=1;rounded=0;strokeWidth=4;fontSize=21;" parent="1" source="MVpMIPIj1c72HwX78RUm-26" edge="1">
          <mxGeometry width="50" height="50" relative="1" as="geometry">
            <mxPoint x="907" y="61" as="sourcePoint" />
            <mxPoint x="900" y="-32" as="targetPoint" />
          </mxGeometry>
        </mxCell>
        <mxCell id="MVpMIPIj1c72HwX78RUm-26" value="" style="rhombus;whiteSpace=wrap;html=1;container=0;strokeWidth=4;fontSize=21;" parent="1" vertex="1">
          <mxGeometry x="861" y="59.5" width="80" height="80" as="geometry" />
        </mxCell>
        <mxCell id="MVpMIPIj1c72HwX78RUm-23" value="" style="rounded=0;whiteSpace=wrap;html=1;strokeWidth=4;fontSize=21;" parent="1" vertex="1">
          <mxGeometry x="846" y="-92" width="120" height="60" as="geometry" />
        </mxCell>
        <mxCell id="kBqd_8Ci3ENqyGrLn9Mj-32" value="" style="rounded=0;whiteSpace=wrap;html=1;container=0;strokeWidth=4;fontSize=21;" parent="1" vertex="1">
          <mxGeometry x="-410" y="63" width="147.5" height="60" as="geometry" />
        </mxCell>
        <mxCell id="kBqd_8Ci3ENqyGrLn9Mj-33" value="user" style="text;html=1;align=center;verticalAlign=middle;whiteSpace=wrap;rounded=0;container=0;strokeWidth=4;fontSize=21;" parent="1" vertex="1">
          <mxGeometry x="-369.5" y="77" width="60" height="30" as="geometry" />
        </mxCell>
        <mxCell id="kBqd_8Ci3ENqyGrLn9Mj-35" value="" style="ellipse;whiteSpace=wrap;html=1;container=0;strokeWidth=4;fontSize=21;" parent="1" vertex="1">
          <mxGeometry x="-514" y="-28" width="110" height="60" as="geometry" />
        </mxCell>
        <mxCell id="kBqd_8Ci3ENqyGrLn9Mj-39" value="id" style="text;html=1;align=center;verticalAlign=middle;whiteSpace=wrap;rounded=0;container=0;strokeWidth=4;fontSize=21;" parent="1" vertex="1">
          <mxGeometry x="-490" y="-15.5" width="60" height="30" as="geometry" />
        </mxCell>
        <mxCell id="kBqd_8Ci3ENqyGrLn9Mj-41" value="" style="endArrow=none;html=1;strokeWidth=4;rounded=0;entryX=1;entryY=1;entryDx=0;entryDy=0;exitX=0.115;exitY=0.825;exitDx=0;exitDy=0;fontSize=21;dashed=1;exitPerimeter=0;" parent="1" source="kBqd_8Ci3ENqyGrLn9Mj-35" target="kBqd_8Ci3ENqyGrLn9Mj-35" edge="1">
          <mxGeometry width="50" height="50" relative="1" as="geometry">
            <mxPoint x="-475" y="32" as="sourcePoint" />
            <mxPoint x="-425" y="-18" as="targetPoint" />
            <Array as="points">
              <mxPoint x="-485" y="22" />
            </Array>
          </mxGeometry>
        </mxCell>
        <mxCell id="kBqd_8Ci3ENqyGrLn9Mj-42" value="" style="endArrow=none;html=1;rounded=0;entryX=0.645;entryY=0.007;entryDx=0;entryDy=0;entryPerimeter=0;strokeWidth=4;fontSize=21;" parent="1" source="kBqd_8Ci3ENqyGrLn9Mj-46" edge="1">
          <mxGeometry width="50" height="50" relative="1" as="geometry">
            <mxPoint x="-355" y="213" as="sourcePoint" />
            <mxPoint x="-314.8624999999997" y="63.4200000000003" as="targetPoint" />
          </mxGeometry>
        </mxCell>
        <mxCell id="kBqd_8Ci3ENqyGrLn9Mj-43" value="" style="endArrow=none;html=1;rounded=0;exitX=0.5;exitY=0;exitDx=0;exitDy=0;entryX=0.428;entryY=-0.012;entryDx=0;entryDy=0;entryPerimeter=0;strokeWidth=4;fontSize=21;" parent="1" source="kBqd_8Ci3ENqyGrLn9Mj-44" edge="1">
          <mxGeometry width="50" height="50" relative="1" as="geometry">
            <mxPoint x="-475" y="213" as="sourcePoint" />
            <mxPoint x="-346.8699999999999" y="62.2800000000002" as="targetPoint" />
            <Array as="points" />
          </mxGeometry>
        </mxCell>
        <mxCell id="kBqd_8Ci3ENqyGrLn9Mj-50" value="" style="endArrow=none;html=1;rounded=0;exitX=0;exitY=0.5;exitDx=0;exitDy=0;entryX=1;entryY=0;entryDx=0;entryDy=0;strokeWidth=4;fontSize=21;" parent="1" source="kBqd_8Ci3ENqyGrLn9Mj-49" edge="1">
          <mxGeometry width="50" height="50" relative="1" as="geometry">
            <mxPoint x="-148.28647651441315" y="4.744802192554744" as="sourcePoint" />
            <mxPoint x="-262.5" y="63" as="targetPoint" />
          </mxGeometry>
        </mxCell>
        <mxCell id="kBqd_8Ci3ENqyGrLn9Mj-52" value="" style="endArrow=none;html=1;rounded=0;entryX=0.94;entryY=0.707;entryDx=0;entryDy=0;exitX=0;exitY=0.25;exitDx=0;exitDy=0;entryPerimeter=0;strokeWidth=4;fontSize=21;" parent="1" source="kBqd_8Ci3ENqyGrLn9Mj-32" target="kBqd_8Ci3ENqyGrLn9Mj-56" edge="1">
          <mxGeometry width="50" height="50" relative="1" as="geometry">
            <mxPoint x="-414" y="98" as="sourcePoint" />
            <mxPoint x="-470.5" y="95" as="targetPoint" />
          </mxGeometry>
        </mxCell>
        <mxCell id="MVpMIPIj1c72HwX78RUm-81" value="" style="group;strokeWidth=4;fontSize=21;" parent="1" vertex="1" connectable="0">
          <mxGeometry x="-398" y="-53" width="110" height="76" as="geometry" />
        </mxCell>
        <mxCell id="kBqd_8Ci3ENqyGrLn9Mj-44" value="" style="ellipse;whiteSpace=wrap;html=1;container=0;strokeWidth=4;fontSize=21;" parent="MVpMIPIj1c72HwX78RUm-81" vertex="1">
          <mxGeometry width="110" height="76" as="geometry" />
        </mxCell>
        <mxCell id="kBqd_8Ci3ENqyGrLn9Mj-45" value="name" style="text;html=1;align=center;verticalAlign=middle;whiteSpace=wrap;rounded=0;container=0;strokeWidth=4;fontSize=21;" parent="MVpMIPIj1c72HwX78RUm-81" vertex="1">
          <mxGeometry x="17" y="22.496000000000002" width="60" height="36.480000000000004" as="geometry" />
        </mxCell>
        <mxCell id="MVpMIPIj1c72HwX78RUm-82" value="" style="endArrow=none;html=1;rounded=0;entryX=0.712;entryY=0.936;entryDx=0;entryDy=0;entryPerimeter=0;exitX=0.072;exitY=0.064;exitDx=0;exitDy=0;exitPerimeter=0;strokeWidth=4;fontSize=21;" parent="1" target="kBqd_8Ci3ENqyGrLn9Mj-35" edge="1">
          <mxGeometry width="50" height="50" relative="1" as="geometry">
            <mxPoint x="-404.3799999999999" y="61.840000000000146" as="sourcePoint" />
            <mxPoint x="-440.97" y="35.56000000000017" as="targetPoint" />
          </mxGeometry>
        </mxCell>
        <mxCell id="kBqd_8Ci3ENqyGrLn9Mj-56" value="" style="ellipse;whiteSpace=wrap;html=1;container=0;strokeWidth=4;fontSize=21;" parent="1" vertex="1">
          <mxGeometry x="-563" y="28" width="100" height="60" as="geometry" />
        </mxCell>
        <mxCell id="kBqd_8Ci3ENqyGrLn9Mj-46" value="" style="ellipse;whiteSpace=wrap;html=1;container=0;strokeWidth=4;fontSize=21;" parent="1" vertex="1">
          <mxGeometry x="-284" y="-53" width="110" height="70" as="geometry" />
        </mxCell>
        <mxCell id="kBqd_8Ci3ENqyGrLn9Mj-47" value="mobile" style="text;html=1;align=center;verticalAlign=middle;whiteSpace=wrap;rounded=0;container=0;strokeWidth=4;fontSize=21;" parent="1" vertex="1">
          <mxGeometry x="-259" y="-33" width="60" height="30" as="geometry" />
        </mxCell>
        <mxCell id="kBqd_8Ci3ENqyGrLn9Mj-49" value="" style="ellipse;whiteSpace=wrap;html=1;container=0;strokeWidth=4;fontSize=21;" parent="1" vertex="1">
          <mxGeometry x="-201" y="10" width="92" height="61" as="geometry" />
        </mxCell>
        <mxCell id="kBqd_8Ci3ENqyGrLn9Mj-51" value="age" style="text;html=1;align=center;verticalAlign=middle;whiteSpace=wrap;rounded=0;container=0;strokeWidth=4;fontSize=21;" parent="1" vertex="1">
          <mxGeometry x="-187.5" y="25.5" width="60" height="30" as="geometry" />
        </mxCell>
        <mxCell id="kBqd_8Ci3ENqyGrLn9Mj-58" value="password" style="text;html=1;align=center;verticalAlign=middle;whiteSpace=wrap;rounded=0;container=0;strokeWidth=4;fontSize=21;" parent="1" vertex="1">
          <mxGeometry x="-543" y="42" width="60" height="30" as="geometry" />
        </mxCell>
        <mxCell id="MVpMIPIj1c72HwX78RUm-87" value="" style="rhombus;whiteSpace=wrap;html=1;strokeWidth=4;fontSize=21;perimeterSpacing=0;" parent="1" vertex="1">
          <mxGeometry x="-106" y="53" width="120" height="87" as="geometry" />
        </mxCell>
        <mxCell id="MVpMIPIj1c72HwX78RUm-89" value="" style="endArrow=none;html=1;rounded=0;entryX=0.5;entryY=1;entryDx=0;entryDy=0;exitX=0.5;exitY=0;exitDx=0;exitDy=0;strokeWidth=4;fontSize=21;" parent="1" source="MVpMIPIj1c72HwX78RUm-87" edge="1">
          <mxGeometry width="50" height="50" relative="1" as="geometry">
            <mxPoint x="-52.5" y="-392" as="sourcePoint" />
            <mxPoint x="-52.5" y="-470" as="targetPoint" />
          </mxGeometry>
        </mxCell>
        <mxCell id="MVpMIPIj1c72HwX78RUm-90" value="manage" style="text;html=1;align=center;verticalAlign=middle;whiteSpace=wrap;rounded=0;strokeWidth=4;fontSize=21;" parent="1" vertex="1">
          <mxGeometry x="-80" y="80.5" width="60" height="30" as="geometry" />
        </mxCell>
        <mxCell id="MVpMIPIj1c72HwX78RUm-92" value="" style="endArrow=none;html=1;rounded=0;entryX=1;entryY=0.5;entryDx=0;entryDy=0;exitX=0;exitY=0.5;exitDx=0;exitDy=0;strokeWidth=4;fontSize=21;" parent="1" source="MVpMIPIj1c72HwX78RUm-87" target="kBqd_8Ci3ENqyGrLn9Mj-32" edge="1">
          <mxGeometry width="50" height="50" relative="1" as="geometry">
            <mxPoint x="-100" y="93" as="sourcePoint" />
            <mxPoint x="120" y="-180" as="targetPoint" />
          </mxGeometry>
        </mxCell>
        <mxCell id="MVpMIPIj1c72HwX78RUm-94" value="" style="endArrow=none;html=1;rounded=0;exitX=1;exitY=0.5;exitDx=0;exitDy=0;entryX=0;entryY=0.5;entryDx=0;entryDy=0;strokeWidth=4;fontSize=21;" parent="1" source="MVpMIPIj1c72HwX78RUm-87" edge="1">
          <mxGeometry width="50" height="50" relative="1" as="geometry">
            <mxPoint x="70" y="-130" as="sourcePoint" />
            <mxPoint x="285" y="96" as="targetPoint" />
          </mxGeometry>
        </mxCell>
        <mxCell id="kBqd_8Ci3ENqyGrLn9Mj-135" value="Ambulance" style="text;html=1;align=center;verticalAlign=middle;whiteSpace=wrap;rounded=0;container=0;strokeWidth=4;fontSize=21;" parent="1" vertex="1">
          <mxGeometry x="327" y="74.99999999999994" width="60" height="30" as="geometry" />
        </mxCell>
        <mxCell id="kBqd_8Ci3ENqyGrLn9Mj-136" value="" style="ellipse;whiteSpace=wrap;html=1;rotation=0;container=0;strokeWidth=4;fontSize=21;" parent="1" vertex="1">
          <mxGeometry x="87" y="152.99999999999994" width="110" height="70" as="geometry" />
        </mxCell>
        <mxCell id="kBqd_8Ci3ENqyGrLn9Mj-137" value="" style="ellipse;whiteSpace=wrap;html=1;rotation=0;container=0;strokeWidth=4;fontSize=21;" parent="1" vertex="1">
          <mxGeometry x="190" y="192.99999999999994" width="104" height="70.18" as="geometry" />
        </mxCell>
        <mxCell id="kBqd_8Ci3ENqyGrLn9Mj-138" value="" style="ellipse;whiteSpace=wrap;html=1;rotation=0;container=0;strokeWidth=4;fontSize=21;" parent="1" vertex="1">
          <mxGeometry x="297.5" y="188.17999999999995" width="113" height="75" as="geometry" />
        </mxCell>
        <mxCell id="kBqd_8Ci3ENqyGrLn9Mj-139" value="" style="ellipse;whiteSpace=wrap;html=1;rotation=0;container=0;strokeWidth=4;fontSize=21;" parent="1" vertex="1">
          <mxGeometry x="415" y="200.99999999999994" width="98.66" height="70.18" as="geometry" />
        </mxCell>
        <mxCell id="kBqd_8Ci3ENqyGrLn9Mj-140" value="" style="endArrow=none;html=1;rounded=0;entryX=0;entryY=0.75;entryDx=0;entryDy=0;strokeWidth=4;fontSize=21;" parent="1" target="kBqd_8Ci3ENqyGrLn9Mj-134" edge="1">
          <mxGeometry width="50" height="50" relative="1" as="geometry">
            <mxPoint x="150" y="153" as="sourcePoint" />
            <mxPoint x="237" y="161" as="targetPoint" />
          </mxGeometry>
        </mxCell>
        <mxCell id="kBqd_8Ci3ENqyGrLn9Mj-141" value="" style="endArrow=none;html=1;rounded=0;entryX=0.057;entryY=0.955;entryDx=0;entryDy=0;exitX=0.5;exitY=0;exitDx=0;exitDy=0;entryPerimeter=0;strokeWidth=4;fontSize=21;" parent="1" source="kBqd_8Ci3ENqyGrLn9Mj-137" target="kBqd_8Ci3ENqyGrLn9Mj-134" edge="1">
          <mxGeometry width="50" height="50" relative="1" as="geometry">
            <mxPoint x="307" y="210.99999999999994" as="sourcePoint" />
            <mxPoint x="283" y="161" as="targetPoint" />
          </mxGeometry>
        </mxCell>
        <mxCell id="kBqd_8Ci3ENqyGrLn9Mj-142" value="" style="endArrow=none;html=1;rounded=0;entryX=0.25;entryY=1;entryDx=0;entryDy=0;strokeWidth=4;fontSize=21;" parent="1" source="kBqd_8Ci3ENqyGrLn9Mj-138" target="kBqd_8Ci3ENqyGrLn9Mj-134" edge="1">
          <mxGeometry width="50" height="50" relative="1" as="geometry">
            <mxPoint x="307" y="210.99999999999994" as="sourcePoint" />
            <mxPoint x="329" y="161" as="targetPoint" />
          </mxGeometry>
        </mxCell>
        <mxCell id="kBqd_8Ci3ENqyGrLn9Mj-143" value="" style="endArrow=none;html=1;rounded=0;entryX=0.5;entryY=1;entryDx=0;entryDy=0;exitX=0.264;exitY=0.055;exitDx=0;exitDy=0;exitPerimeter=0;strokeWidth=4;fontSize=21;" parent="1" source="kBqd_8Ci3ENqyGrLn9Mj-139" target="kBqd_8Ci3ENqyGrLn9Mj-134" edge="1">
          <mxGeometry width="50" height="50" relative="1" as="geometry">
            <mxPoint x="307" y="210.99999999999994" as="sourcePoint" />
            <mxPoint x="375" y="161" as="targetPoint" />
          </mxGeometry>
        </mxCell>
        <mxCell id="kBqd_8Ci3ENqyGrLn9Mj-144" value="" style="endArrow=none;html=1;strokeWidth=4;rounded=0;entryX=0.962;entryY=0.7;entryDx=0;entryDy=0;entryPerimeter=0;exitX=0.073;exitY=0.706;exitDx=0;exitDy=0;exitPerimeter=0;fontSize=21;dashed=1;" parent="1" edge="1">
          <mxGeometry width="50" height="50" relative="1" as="geometry">
            <mxPoint x="94.02999999999997" y="205.42000000000007" as="sourcePoint" />
            <mxPoint x="191.82000000000016" y="205" as="targetPoint" />
          </mxGeometry>
        </mxCell>
        <mxCell id="kBqd_8Ci3ENqyGrLn9Mj-145" value="id" style="text;html=1;align=center;verticalAlign=middle;whiteSpace=wrap;rounded=0;rotation=0;container=0;strokeWidth=4;fontSize=21;" parent="1" vertex="1">
          <mxGeometry x="104" y="166.99999999999994" width="70" height="30" as="geometry" />
        </mxCell>
        <mxCell id="kBqd_8Ci3ENqyGrLn9Mj-148" value="name" style="text;html=1;align=center;verticalAlign=middle;whiteSpace=wrap;rounded=0;container=0;strokeWidth=4;fontSize=21;" parent="1" vertex="1">
          <mxGeometry x="210" y="212.99999999999994" width="60" height="30" as="geometry" />
        </mxCell>
        <mxCell id="kBqd_8Ci3ENqyGrLn9Mj-149" value="phone" style="text;html=1;align=center;verticalAlign=middle;whiteSpace=wrap;rounded=0;container=0;strokeWidth=4;fontSize=21;" parent="1" vertex="1">
          <mxGeometry x="315" y="213.08999999999995" width="60" height="30" as="geometry" />
        </mxCell>
        <mxCell id="kBqd_8Ci3ENqyGrLn9Mj-151" value="email" style="text;html=1;align=center;verticalAlign=middle;whiteSpace=wrap;rounded=0;container=0;strokeWidth=4;fontSize=21;" parent="1" vertex="1">
          <mxGeometry x="434.3299999999999" y="220.99999999999994" width="60" height="30" as="geometry" />
        </mxCell>
        <mxCell id="kBqd_8Ci3ENqyGrLn9Mj-152" value="" style="endArrow=none;html=1;rounded=0;entryX=0.244;entryY=0.061;entryDx=0;entryDy=0;entryPerimeter=0;exitX=0.75;exitY=1;exitDx=0;exitDy=0;strokeWidth=4;fontSize=21;" parent="1" source="kBqd_8Ci3ENqyGrLn9Mj-134" target="kBqd_8Ci3ENqyGrLn9Mj-153" edge="1">
          <mxGeometry width="50" height="50" relative="1" as="geometry">
            <mxPoint x="458.3399999999999" y="112.99999999999994" as="sourcePoint" />
            <mxPoint x="647" y="139.99999999999994" as="targetPoint" />
          </mxGeometry>
        </mxCell>
        <mxCell id="kBqd_8Ci3ENqyGrLn9Mj-153" value="" style="ellipse;whiteSpace=wrap;html=1;container=0;strokeWidth=4;fontSize=21;" parent="1" vertex="1">
          <mxGeometry x="524" y="213.24999999999994" width="100" height="67.5" as="geometry" />
        </mxCell>
        <mxCell id="kBqd_8Ci3ENqyGrLn9Mj-155" value="vehicle number" style="text;html=1;align=center;verticalAlign=middle;whiteSpace=wrap;rounded=0;container=0;strokeWidth=4;fontSize=21;" parent="1" vertex="1">
          <mxGeometry x="544" y="231.99999999999994" width="60" height="30" as="geometry" />
        </mxCell>
        <mxCell id="kBqd_8Ci3ENqyGrLn9Mj-162" value="" style="endArrow=none;html=1;rounded=0;entryX=0.412;entryY=0.003;entryDx=0;entryDy=0;entryPerimeter=0;exitX=0.951;exitY=0.974;exitDx=0;exitDy=0;exitPerimeter=0;strokeWidth=4;fontSize=21;" parent="1" source="kBqd_8Ci3ENqyGrLn9Mj-134" target="kBqd_8Ci3ENqyGrLn9Mj-163" edge="1">
          <mxGeometry width="50" height="50" relative="1" as="geometry">
            <mxPoint x="457" y="104.99999999999994" as="sourcePoint" />
            <mxPoint x="747" y="169.99999999999994" as="targetPoint" />
          </mxGeometry>
        </mxCell>
        <mxCell id="kBqd_8Ci3ENqyGrLn9Mj-163" value="" style="ellipse;whiteSpace=wrap;html=1;container=0;strokeWidth=4;fontSize=21;" parent="1" vertex="1">
          <mxGeometry x="634" y="217.18" width="100" height="65" as="geometry" />
        </mxCell>
        <mxCell id="kBqd_8Ci3ENqyGrLn9Mj-164" value="password" style="text;html=1;align=center;verticalAlign=middle;whiteSpace=wrap;rounded=0;container=0;strokeWidth=4;fontSize=21;" parent="1" vertex="1">
          <mxGeometry x="654" y="234.68" width="60" height="30" as="geometry" />
        </mxCell>
        <mxCell id="kBqd_8Ci3ENqyGrLn9Mj-165" value="" style="endArrow=none;html=1;rounded=0;exitX=1;exitY=0.75;exitDx=0;exitDy=0;entryX=0.294;entryY=0.058;entryDx=0;entryDy=0;entryPerimeter=0;strokeWidth=4;fontSize=21;" parent="1" source="kBqd_8Ci3ENqyGrLn9Mj-134" target="kBqd_8Ci3ENqyGrLn9Mj-168" edge="1">
          <mxGeometry width="50" height="50" relative="1" as="geometry">
            <mxPoint x="457" y="99.99999999999994" as="sourcePoint" />
            <mxPoint x="837" y="159.99999999999994" as="targetPoint" />
          </mxGeometry>
        </mxCell>
        <mxCell id="kBqd_8Ci3ENqyGrLn9Mj-134" value="" style="rounded=0;whiteSpace=wrap;html=1;container=0;strokeWidth=4;fontSize=21;" parent="1" vertex="1">
          <mxGeometry x="267" y="59.99999999999994" width="184" height="60" as="geometry" />
        </mxCell>
        <mxCell id="kBqd_8Ci3ENqyGrLn9Mj-168" value="" style="ellipse;whiteSpace=wrap;html=1;container=0;strokeWidth=4;fontSize=21;" parent="1" vertex="1">
          <mxGeometry x="745" y="208.68" width="120" height="80" as="geometry" />
        </mxCell>
        <mxCell id="kBqd_8Ci3ENqyGrLn9Mj-169" value="Location" style="text;html=1;align=center;verticalAlign=middle;whiteSpace=wrap;rounded=0;container=0;strokeWidth=4;fontSize=21;" parent="1" vertex="1">
          <mxGeometry x="773" y="232.68" width="60" height="30" as="geometry" />
        </mxCell>
        <mxCell id="kBqd_8Ci3ENqyGrLn9Mj-170" value="ambulance" style="text;html=1;align=center;verticalAlign=middle;whiteSpace=wrap;rounded=0;container=0;strokeWidth=4;fontSize=21;" parent="1" vertex="1">
          <mxGeometry x="327" y="72.99999999999994" width="60" height="30" as="geometry" />
        </mxCell>
        <mxCell id="MVpMIPIj1c72HwX78RUm-99" value="" style="endArrow=none;html=1;rounded=0;exitX=1;exitY=0.5;exitDx=0;exitDy=0;strokeWidth=4;fontSize=21;" parent="1" source="kBqd_8Ci3ENqyGrLn9Mj-134" edge="1">
          <mxGeometry width="50" height="50" relative="1" as="geometry">
            <mxPoint x="360" y="50" as="sourcePoint" />
            <mxPoint x="860" y="100" as="targetPoint" />
          </mxGeometry>
        </mxCell>
        <mxCell id="MVpMIPIj1c72HwX78RUm-100" value="" style="endArrow=none;html=1;rounded=0;entryX=0.438;entryY=0.981;entryDx=0;entryDy=0;entryPerimeter=0;exitX=0.5;exitY=0;exitDx=0;exitDy=0;strokeWidth=4;fontSize=21;" parent="1" source="MVpMIPIj1c72HwX78RUm-103" target="kBqd_8Ci3ENqyGrLn9Mj-32" edge="1">
          <mxGeometry width="50" height="50" relative="1" as="geometry">
            <mxPoint x="-340" y="190" as="sourcePoint" />
            <mxPoint x="-337" y="124" as="targetPoint" />
          </mxGeometry>
        </mxCell>
        <mxCell id="MVpMIPIj1c72HwX78RUm-103" value="" style="rhombus;whiteSpace=wrap;html=1;strokeWidth=4;fontSize=21;" parent="1" vertex="1">
          <mxGeometry x="-384" y="191.18" width="80" height="80" as="geometry" />
        </mxCell>
        <mxCell id="MVpMIPIj1c72HwX78RUm-105" value="view" style="text;html=1;align=center;verticalAlign=middle;whiteSpace=wrap;rounded=0;strokeWidth=4;fontSize=21;" parent="1" vertex="1">
          <mxGeometry x="-374" y="216.18" width="60" height="30" as="geometry" />
        </mxCell>
        <mxCell id="MVpMIPIj1c72HwX78RUm-106" value="" style="endArrow=none;html=1;rounded=0;strokeWidth=4;fontSize=21;" parent="1" edge="1">
          <mxGeometry width="50" height="50" relative="1" as="geometry">
            <mxPoint x="-344" y="268" as="sourcePoint" />
            <mxPoint x="-344" y="365" as="targetPoint" />
          </mxGeometry>
        </mxCell>
        <mxCell id="MVpMIPIj1c72HwX78RUm-107" value="" style="rounded=0;whiteSpace=wrap;html=1;strokeWidth=4;fontSize=21;" parent="1" vertex="1">
          <mxGeometry x="-400.25" y="360" width="120" height="60" as="geometry" />
        </mxCell>
        <mxCell id="MVpMIPIj1c72HwX78RUm-108" value="request" style="text;html=1;align=center;verticalAlign=middle;whiteSpace=wrap;rounded=0;strokeWidth=4;fontSize=21;" parent="1" vertex="1">
          <mxGeometry x="-374" y="375" width="60" height="30" as="geometry" />
        </mxCell>
        <mxCell id="MVpMIPIj1c72HwX78RUm-111" value="view" style="text;html=1;align=center;verticalAlign=middle;whiteSpace=wrap;rounded=0;strokeWidth=4;fontSize=21;" parent="1" vertex="1">
          <mxGeometry x="872" y="84.5" width="60" height="30" as="geometry" />
        </mxCell>
        <mxCell id="MVpMIPIj1c72HwX78RUm-112" value="" style="endArrow=none;html=1;rounded=0;strokeWidth=4;fontSize=21;" parent="1" edge="1">
          <mxGeometry width="50" height="50" relative="1" as="geometry">
            <mxPoint x="901" y="390" as="sourcePoint" />
            <mxPoint x="901" y="140.18" as="targetPoint" />
          </mxGeometry>
        </mxCell>
        <mxCell id="MVpMIPIj1c72HwX78RUm-113" value="" style="endArrow=none;html=1;rounded=0;exitX=0.969;exitY=0.333;exitDx=0;exitDy=0;exitPerimeter=0;strokeWidth=4;fontSize=21;" parent="1" edge="1">
          <mxGeometry width="50" height="50" relative="1" as="geometry">
            <mxPoint x="-279.9699999999998" y="389.98" as="sourcePoint" />
            <mxPoint x="898" y="390" as="targetPoint" />
          </mxGeometry>
        </mxCell>
        <mxCell id="MVpMIPIj1c72HwX78RUm-114" value="IOT" style="text;html=1;align=center;verticalAlign=middle;whiteSpace=wrap;rounded=0;strokeWidth=4;fontSize=21;" parent="1" vertex="1">
          <mxGeometry x="871" y="-74" width="60" height="30" as="geometry" />
        </mxCell>
        <mxCell id="MVpMIPIj1c72HwX78RUm-115" value="" style="endArrow=none;html=1;rounded=0;entryX=0;entryY=0.5;entryDx=0;entryDy=0;strokeWidth=4;fontSize=21;" parent="1" edge="1">
          <mxGeometry width="50" height="50" relative="1" as="geometry">
            <mxPoint x="-700" y="100" as="sourcePoint" />
            <mxPoint x="-409.9999999999998" y="101" as="targetPoint" />
          </mxGeometry>
        </mxCell>
        <mxCell id="MVpMIPIj1c72HwX78RUm-117" value="" style="rhombus;whiteSpace=wrap;html=1;strokeWidth=4;fontSize=21;" parent="1" vertex="1">
          <mxGeometry x="-705" y="58.5" width="80" height="80" as="geometry" />
        </mxCell>
        <mxCell id="MVpMIPIj1c72HwX78RUm-118" value="send" style="text;html=1;align=center;verticalAlign=middle;whiteSpace=wrap;rounded=0;strokeWidth=4;fontSize=21;" parent="1" vertex="1">
          <mxGeometry x="-695" y="83.5" width="60" height="30" as="geometry" />
        </mxCell>
        <mxCell id="MVpMIPIj1c72HwX78RUm-119" value="" style="endArrow=none;html=1;rounded=0;strokeWidth=4;fontSize=21;" parent="1" edge="1">
          <mxGeometry width="50" height="50" relative="1" as="geometry">
            <mxPoint x="-665" y="400" as="sourcePoint" />
            <mxPoint x="-665" y="138" as="targetPoint" />
          </mxGeometry>
        </mxCell>
        <mxCell id="MVpMIPIj1c72HwX78RUm-120" value="" style="endArrow=none;html=1;rounded=0;strokeWidth=4;fontSize=21;" parent="1" edge="1">
          <mxGeometry width="50" height="50" relative="1" as="geometry">
            <mxPoint x="-662" y="399" as="sourcePoint" />
            <mxPoint x="-402" y="399" as="targetPoint" />
          </mxGeometry>
        </mxCell>
        <mxCell id="MVpMIPIj1c72HwX78RUm-121" value="" style="endArrow=none;html=1;rounded=0;exitX=0;exitY=1;exitDx=0;exitDy=0;entryX=0.744;entryY=0.082;entryDx=0;entryDy=0;entryPerimeter=0;strokeWidth=4;fontSize=21;" parent="1" source="MVpMIPIj1c72HwX78RUm-107" target="MVpMIPIj1c72HwX78RUm-122" edge="1">
          <mxGeometry width="50" height="50" relative="1" as="geometry">
            <mxPoint x="-449" y="469" as="sourcePoint" />
            <mxPoint x="-399" y="419" as="targetPoint" />
          </mxGeometry>
        </mxCell>
        <mxCell id="MVpMIPIj1c72HwX78RUm-122" value="" style="ellipse;whiteSpace=wrap;html=1;strokeWidth=4;fontSize=21;" parent="1" vertex="1">
          <mxGeometry x="-564" y="481" width="120" height="80" as="geometry" />
        </mxCell>
        <mxCell id="MVpMIPIj1c72HwX78RUm-123" value="id" style="text;html=1;align=center;verticalAlign=middle;whiteSpace=wrap;rounded=0;strokeWidth=4;fontSize=21;" parent="1" vertex="1">
          <mxGeometry x="-535" y="501" width="60" height="30" as="geometry" />
        </mxCell>
        <mxCell id="MVpMIPIj1c72HwX78RUm-124" value="" style="endArrow=none;html=1;strokeWidth=4;rounded=0;entryX=0.974;entryY=0.727;entryDx=0;entryDy=0;entryPerimeter=0;fontSize=21;dashed=1;" parent="1" target="MVpMIPIj1c72HwX78RUm-122" edge="1">
          <mxGeometry width="50" height="50" relative="1" as="geometry">
            <mxPoint x="-547" y="540" as="sourcePoint" />
            <mxPoint x="-497" y="490" as="targetPoint" />
          </mxGeometry>
        </mxCell>
        <mxCell id="MVpMIPIj1c72HwX78RUm-125" value="" style="ellipse;whiteSpace=wrap;html=1;strokeWidth=4;fontSize=21;" parent="1" vertex="1">
          <mxGeometry x="-450" y="519" width="112" height="70" as="geometry" />
        </mxCell>
        <mxCell id="MVpMIPIj1c72HwX78RUm-126" value="" style="endArrow=none;html=1;rounded=0;entryX=0.352;entryY=1.002;entryDx=0;entryDy=0;entryPerimeter=0;exitX=0.5;exitY=0;exitDx=0;exitDy=0;strokeWidth=4;fontSize=21;" parent="1" source="MVpMIPIj1c72HwX78RUm-125" target="MVpMIPIj1c72HwX78RUm-107" edge="1">
          <mxGeometry width="50" height="50" relative="1" as="geometry">
            <mxPoint x="-365" y="481" as="sourcePoint" />
            <mxPoint x="-315" y="431" as="targetPoint" />
          </mxGeometry>
        </mxCell>
        <mxCell id="MVpMIPIj1c72HwX78RUm-127" value="" style="ellipse;whiteSpace=wrap;html=1;strokeWidth=4;fontSize=21;" parent="1" vertex="1">
          <mxGeometry x="-340" y="550" width="109" height="70" as="geometry" />
        </mxCell>
        <mxCell id="MVpMIPIj1c72HwX78RUm-128" value="" style="endArrow=none;html=1;rounded=0;entryX=0.5;entryY=1;entryDx=0;entryDy=0;exitX=0.5;exitY=0;exitDx=0;exitDy=0;strokeWidth=4;fontSize=21;" parent="1" source="MVpMIPIj1c72HwX78RUm-127" target="MVpMIPIj1c72HwX78RUm-107" edge="1">
          <mxGeometry width="50" height="50" relative="1" as="geometry">
            <mxPoint x="-239" y="489" as="sourcePoint" />
            <mxPoint x="-189" y="439" as="targetPoint" />
          </mxGeometry>
        </mxCell>
        <mxCell id="MVpMIPIj1c72HwX78RUm-129" value="" style="endArrow=none;html=1;rounded=0;exitX=0.249;exitY=0.105;exitDx=0;exitDy=0;exitPerimeter=0;entryX=0.75;entryY=1;entryDx=0;entryDy=0;strokeWidth=4;fontSize=21;" parent="1" source="MVpMIPIj1c72HwX78RUm-130" target="MVpMIPIj1c72HwX78RUm-107" edge="1">
          <mxGeometry width="50" height="50" relative="1" as="geometry">
            <mxPoint x="-170" y="490" as="sourcePoint" />
            <mxPoint x="-280" y="420" as="targetPoint" />
          </mxGeometry>
        </mxCell>
        <mxCell id="MVpMIPIj1c72HwX78RUm-130" value="" style="ellipse;whiteSpace=wrap;html=1;strokeWidth=4;fontSize=21;" parent="1" vertex="1">
          <mxGeometry x="-231" y="561" width="108" height="75" as="geometry" />
        </mxCell>
        <mxCell id="MVpMIPIj1c72HwX78RUm-131" value="" style="endArrow=none;html=1;rounded=0;exitX=1;exitY=1;exitDx=0;exitDy=0;entryX=0;entryY=0;entryDx=0;entryDy=0;strokeWidth=4;fontSize=21;" parent="1" source="MVpMIPIj1c72HwX78RUm-107" target="MVpMIPIj1c72HwX78RUm-134" edge="1">
          <mxGeometry width="50" height="50" relative="1" as="geometry">
            <mxPoint x="-160" y="420" as="sourcePoint" />
            <mxPoint x="-110" y="470" as="targetPoint" />
          </mxGeometry>
        </mxCell>
        <mxCell id="MVpMIPIj1c72HwX78RUm-134" value="" style="ellipse;whiteSpace=wrap;html=1;strokeWidth=4;fontSize=21;" parent="1" vertex="1">
          <mxGeometry x="-122.5" y="563" width="112.5" height="73" as="geometry" />
        </mxCell>
        <mxCell id="MVpMIPIj1c72HwX78RUm-135" value="" style="endArrow=none;html=1;rounded=0;exitX=1;exitY=0.75;exitDx=0;exitDy=0;strokeWidth=4;fontSize=21;" parent="1" source="MVpMIPIj1c72HwX78RUm-107" target="MVpMIPIj1c72HwX78RUm-136" edge="1">
          <mxGeometry width="50" height="50" relative="1" as="geometry">
            <mxPoint x="-150" y="420" as="sourcePoint" />
            <mxPoint x="-60" y="440" as="targetPoint" />
          </mxGeometry>
        </mxCell>
        <mxCell id="MVpMIPIj1c72HwX78RUm-136" value="" style="ellipse;whiteSpace=wrap;html=1;strokeWidth=4;fontSize=21;" parent="1" vertex="1">
          <mxGeometry x="-10" y="550" width="120" height="80" as="geometry" />
        </mxCell>
        <mxCell id="MVpMIPIj1c72HwX78RUm-137" value="" style="endArrow=none;html=1;rounded=0;exitX=1;exitY=0.75;exitDx=0;exitDy=0;strokeWidth=4;fontSize=21;" parent="1" target="MVpMIPIj1c72HwX78RUm-138" edge="1">
          <mxGeometry width="50" height="50" relative="1" as="geometry">
            <mxPoint x="-280.25" y="397" as="sourcePoint" />
            <mxPoint x="140" y="542" as="targetPoint" />
          </mxGeometry>
        </mxCell>
        <mxCell id="MVpMIPIj1c72HwX78RUm-138" value="" style="ellipse;whiteSpace=wrap;html=1;strokeWidth=4;fontSize=21;" parent="1" vertex="1">
          <mxGeometry x="70" y="483" width="120" height="80" as="geometry" />
        </mxCell>
        <mxCell id="MVpMIPIj1c72HwX78RUm-139" value="username" style="text;html=1;align=center;verticalAlign=middle;whiteSpace=wrap;rounded=0;strokeWidth=4;fontSize=21;" parent="1" vertex="1">
          <mxGeometry x="-424" y="535" width="60" height="30" as="geometry" />
        </mxCell>
        <mxCell id="MVpMIPIj1c72HwX78RUm-140" value="user_ph" style="text;html=1;align=center;verticalAlign=middle;whiteSpace=wrap;rounded=0;strokeWidth=4;fontSize=21;" parent="1" vertex="1">
          <mxGeometry x="-319" y="570" width="60" height="30" as="geometry" />
        </mxCell>
        <mxCell id="MVpMIPIj1c72HwX78RUm-141" value="driver no" style="text;html=1;align=center;verticalAlign=middle;whiteSpace=wrap;rounded=0;strokeWidth=4;fontSize=21;" parent="1" vertex="1">
          <mxGeometry x="-207" y="584.5" width="60" height="30" as="geometry" />
        </mxCell>
        <mxCell id="MVpMIPIj1c72HwX78RUm-142" value="driver ph" style="text;html=1;align=center;verticalAlign=middle;whiteSpace=wrap;rounded=0;strokeWidth=4;fontSize=21;" parent="1" vertex="1">
          <mxGeometry x="-98" y="589" width="60" height="30" as="geometry" />
        </mxCell>
        <mxCell id="MVpMIPIj1c72HwX78RUm-143" value="vehicle no" style="text;html=1;align=center;verticalAlign=middle;whiteSpace=wrap;rounded=0;strokeWidth=4;fontSize=21;" parent="1" vertex="1">
          <mxGeometry x="20" y="575" width="60" height="30" as="geometry" />
        </mxCell>
        <mxCell id="MVpMIPIj1c72HwX78RUm-144" value="request time" style="text;html=1;align=center;verticalAlign=middle;whiteSpace=wrap;rounded=0;strokeWidth=4;fontSize=21;" parent="1" vertex="1">
          <mxGeometry x="95" y="508" width="60" height="30" as="geometry" />
        </mxCell>
        <mxCell id="MVpMIPIj1c72HwX78RUm-145" value="" style="endArrow=none;html=1;rounded=0;strokeWidth=4;fontSize=21;" parent="1" edge="1">
          <mxGeometry width="50" height="50" relative="1" as="geometry">
            <mxPoint x="750" y="-60" as="sourcePoint" />
            <mxPoint x="844.89" y="-60" as="targetPoint" />
          </mxGeometry>
        </mxCell>
        <mxCell id="MVpMIPIj1c72HwX78RUm-146" value="" style="ellipse;whiteSpace=wrap;html=1;strokeWidth=4;fontSize=21;" parent="1" vertex="1">
          <mxGeometry x="684" y="-82" width="110" height="70" as="geometry" />
        </mxCell>
        <mxCell id="nvp8wsEIqBxUMCQ-rS5--1" value="id" style="text;html=1;align=center;verticalAlign=middle;whiteSpace=wrap;rounded=0;strokeWidth=4;fontSize=21;" parent="1" vertex="1">
          <mxGeometry x="710" y="-65" width="60" height="30" as="geometry" />
        </mxCell>
        <mxCell id="nvp8wsEIqBxUMCQ-rS5--2" value="" style="endArrow=none;html=1;strokeWidth=4;rounded=0;entryX=0.924;entryY=0.746;entryDx=0;entryDy=0;entryPerimeter=0;fontSize=21;dashed=1;" parent="1" edge="1">
          <mxGeometry width="50" height="50" relative="1" as="geometry">
            <mxPoint x="697" y="-30" as="sourcePoint" />
            <mxPoint x="792.6399999999999" y="-29.779999999999745" as="targetPoint" />
          </mxGeometry>
        </mxCell>
        <mxCell id="nvp8wsEIqBxUMCQ-rS5--3" value="" style="endArrow=none;html=1;rounded=0;strokeWidth=4;fontSize=21;" parent="1" edge="1">
          <mxGeometry width="50" height="50" relative="1" as="geometry">
            <mxPoint x="846" y="-72" as="sourcePoint" />
            <mxPoint x="770" y="-120" as="targetPoint" />
          </mxGeometry>
        </mxCell>
        <mxCell id="nvp8wsEIqBxUMCQ-rS5--4" value="" style="ellipse;whiteSpace=wrap;html=1;strokeWidth=4;fontSize=21;" parent="1" vertex="1">
          <mxGeometry x="715" y="-171" width="100" height="70" as="geometry" />
        </mxCell>
        <mxCell id="nvp8wsEIqBxUMCQ-rS5--5" value="status" style="text;html=1;align=center;verticalAlign=middle;whiteSpace=wrap;rounded=0;strokeWidth=4;fontSize=21;" parent="1" vertex="1">
          <mxGeometry x="730" y="-151" width="60" height="30" as="geometry" />
        </mxCell>
        <mxCell id="nvp8wsEIqBxUMCQ-rS5--7" value="" style="ellipse;whiteSpace=wrap;html=1;strokeWidth=4;fontSize=21;" parent="1" vertex="1">
          <mxGeometry x="960" y="-180" width="150" height="100" as="geometry" />
        </mxCell>
        <mxCell id="nvp8wsEIqBxUMCQ-rS5--8" value="ambulance_id" style="text;html=1;align=center;verticalAlign=middle;whiteSpace=wrap;rounded=0;strokeWidth=4;fontSize=21;" parent="1" vertex="1">
          <mxGeometry x="1000" y="-146" width="60" height="30" as="geometry" />
        </mxCell>
        <mxCell id="nvp8wsEIqBxUMCQ-rS5--9" value="" style="endArrow=none;html=1;rounded=0;strokeWidth=4;fontSize=21;" parent="1" edge="1">
          <mxGeometry width="50" height="50" relative="1" as="geometry">
            <mxPoint x="966" y="-53" as="sourcePoint" />
            <mxPoint x="1020" y="-40" as="targetPoint" />
          </mxGeometry>
        </mxCell>
        <mxCell id="nvp8wsEIqBxUMCQ-rS5--10" value="" style="endArrow=none;html=1;rounded=0;strokeWidth=4;fontSize=21;entryX=0;entryY=1;entryDx=0;entryDy=0;" parent="1" edge="1" target="nvp8wsEIqBxUMCQ-rS5--7">
          <mxGeometry width="50" height="50" relative="1" as="geometry">
            <mxPoint x="964" y="-78" as="sourcePoint" />
            <mxPoint x="980" y="-78" as="targetPoint" />
          </mxGeometry>
        </mxCell>
        <mxCell id="nvp8wsEIqBxUMCQ-rS5--11" value="" style="ellipse;whiteSpace=wrap;html=1;strokeWidth=4;fontSize=21;" parent="1" vertex="1">
          <mxGeometry x="1010" y="-70" width="110" height="70" as="geometry" />
        </mxCell>
        <mxCell id="nvp8wsEIqBxUMCQ-rS5--12" value="Location" style="text;html=1;align=center;verticalAlign=middle;whiteSpace=wrap;rounded=0;strokeWidth=4;fontSize=21;" parent="1" vertex="1">
          <mxGeometry x="1033" y="-50" width="60" height="30" as="geometry" />
        </mxCell>
      </root>
    </mxGraphModel>
  </diagram>
</mxfile>
